<svg id="information-button" xmlns="http://www.w3.org/2000/svg" width="77.917" height="77.917" viewBox="0 0 77.917 77.917">
  <path id="Path_41" data-name="Path 41" d="M38.957,0a38.958,38.958,0,1,0,38.96,38.957A38.959,38.959,0,0,0,38.957,0Zm8.11,60.377q-3.008,1.187-4.8,1.807a12.66,12.66,0,0,1-4.162.623,8.3,8.3,0,0,1-5.663-1.778,5.736,5.736,0,0,1-2.015-4.508,16.376,16.376,0,0,1,.148-2.173c.1-.739.264-1.57.485-2.5l2.51-8.865c.221-.851.412-1.659.564-2.411a10.69,10.69,0,0,0,.224-2.088,3.215,3.215,0,0,0-.7-2.365,3.972,3.972,0,0,0-2.681-.663,7.037,7.037,0,0,0-2,.3c-.676.208-1.263.4-1.745.58L27.9,33.6q2.464-1,4.716-1.718a13.933,13.933,0,0,1,4.254-.719,8.141,8.141,0,0,1,5.58,1.748,5.808,5.808,0,0,1,1.959,4.538q0,.579-.135,2.035a13.617,13.617,0,0,1-.5,2.675L41.278,51c-.2.709-.386,1.52-.551,2.427a12.835,12.835,0,0,0-.241,2.065,2.965,2.965,0,0,0,.788,2.4,4.412,4.412,0,0,0,2.727.64,7.911,7.911,0,0,0,2.065-.32,11.739,11.739,0,0,0,1.669-.561ZM46.625,24.5a5.959,5.959,0,0,1-4.205,1.623A6.021,6.021,0,0,1,38.2,24.5a5.18,5.18,0,0,1-1.758-3.935A5.232,5.232,0,0,1,38.2,16.622a5.978,5.978,0,0,1,4.222-1.639,5.911,5.911,0,0,1,4.205,1.639,5.313,5.313,0,0,1,0,7.879Z" fill="#363636"/>
</svg>
