<?xml version="1.0" encoding="UTF-8"?><svg xmlns="http://www.w3.org/2000/svg" viewBox="0 0 466.6 352.54"><defs><style>.d{fill:#838383;}</style></defs><g id="a"/><g id="b"><g id="c"><g><path class="d" d="M268.35,295.08c2.12-1.97,3.17-4.41,3.17-7.31,0-4.47-3.23-9.08-9.68-13.82-5.34-4.07-9.56-8.19-12.66-12.36-1.41-1.89-2.59-3.8-3.53-5.71-.55-1.1-1.03-2.25-1.47-3.43-1.96-5.13-2.97-10.93-3.05-17.41,0-.26-.02-.52-.02-.78,0-6.56,.89-13.15,2.66-19.77,2.77-10.4,7.69-20.89,14.8-31.46,9.8-14.58,23.1-26.96,39.86-37.15,4.73-6.93,9.48-14.19,14.24-21.76-19.43,8.09-36.44,19.99-51.02,35.72-6.64,7.14-12.32,14.5-17.03,22.09-4.26,6.85-7.73,13.87-10.42,21.08-4.6,12.33-6.9,25.19-6.9,38.57,0,9.55,1.25,18.12,3.74,25.73,1.14,3.5,2.55,6.79,4.22,9.87,.91,1.68,1.89,3.31,2.95,4.87,7.27,10.66,14.81,15.99,22.61,15.99,2.91,0,5.42-.99,7.53-2.96Z"/><path class="d" d="M457.42,139.29c-6.12-8.69-15.34-15.53-27.64-20.53-12.31-5-28.07-7.5-47.29-7.5-7.47,0-14.71,.36-21.73,1.07-2.4,4.14-5.02,8.48-7.88,13.03,6.95-1.1,13.94-1.66,20.99-1.66,19.59,0,34.16,3.88,43.69,11.65,9.53,7.77,14.3,18.3,14.3,31.59s-3.92,25.93-11.75,37.51c-7.83,11.58-16.72,19.68-26.66,24.29-9.94,4.61-19.12,6.71-27.55,6.32l-18.17-.99,14.92-55.6c3.77-14.91,7.29-26.99,10.54-36.23-10.33,2.61-22.26,4.76-35.79,6.46-2.44,3.53-5,7.15-7.66,10.88,.76,.39,1.47,.9,2.14,1.54,1.71,1.65,2.56,3.52,2.56,5.63,0,2.24-.66,6.12-1.97,11.65l-29.78,118.27c-4.47,17.9-10.26,29.81-17.36,35.74-5,4.21-14.34,7.44-28.02,9.68l-2.37,10.46c13.41-3.03,26.49-4.54,39.25-4.54,6.57,0,15.12,.66,25.64,1.97,13.15,1.45,23.14,2.17,29.98,2.17s15.78-1.38,26.03-4.15l2.37-11.06c-11.04,3.69-21.35,5.53-30.94,5.53-7.62,0-16.55-1.25-26.8-3.74,3.28-10.13,6.24-20.38,8.87-30.77l15.88-61.45c6.69,.4,11.61,.59,14.76,.59,20.46,0,39.05-3.82,55.78-11.45,16.72-7.63,29.38-17.67,37.97-30.11,8.59-12.44,12.89-25.11,12.89-38.01,0-10.13-3.06-19.55-9.18-28.24Z"/><path class="d" d="M234.92,179.05c2.36-61.79,8.3-111.34,17.81-148.64-13.01,10.93-24.69,22.71-35.04,35.34-14.57,18.26-36.55,49.7-65.95,94.35-18.24,27.45-29.53,44.19-33.86,50.23-6.3,8.67-13.32,17.66-21.07,26.99-2.02-37.97-3.03-63.3-3.03-76,0-40.8,14.28-81.22,42.85-121.23-6.32,.92-12.7,1.78-19.15,2.57-18.95,2.11-32.45,4.15-40.48,6.12-14.61,3.69-27.64,9.58-39.09,17.67-11.45,8.09-20.63,18.4-27.54,30.9C3.46,109.85,0,122.09,0,134.07c0,7.9,1.79,14.35,5.37,19.35,2.65,3.82,6.1,5.73,10.34,5.73,3.18,0,5.86-1.12,8.06-3.36,2.19-2.24,3.28-5.07,3.28-8.49,0-2.1-1.68-6.25-5.04-12.44-2.83-5.13-4.24-10.2-4.24-15.2,0-13.56,7.27-26.78,21.82-39.69,14.54-12.9,34.19-20.73,58.94-23.5-13.03,17.64-21.89,33.86-26.56,48.67-4.67,14.81-7.01,34.65-7.01,59.53,0,17.64,.89,38.17,2.67,61.6,1.78,23.43,4.11,43.9,7.01,61.41,40.01-48.83,77.33-101.09,111.95-156.77,11.58-18.56,21.19-32.51,28.83-41.86-4.34,24.75-6.98,51.21-7.9,79.37l-3.95,127.16c6.26-5.92,12.94-12.66,20.02-20.2-4.04-9.84-6.08-21.15-6.08-33.8,0-22.12,5.84-43.05,17.41-62.52Z"/><path class="d" d="M283.34,182.84l-31.1,38.47c-.88,4.36-1.34,8.69-1.34,12.96,0,3.34,.29,6.46,.87,9.32,15.75-18.61,33.05-40.31,51.9-65.1,1.95-2.59,3.86-5.13,5.72-7.64,5.22-7.02,10.09-13.74,14.64-20.16,.13-.19,.26-.37,.4-.56,5.47-7.74,10.46-15.05,14.95-21.91,3.26-4.98,6.26-9.72,9-14.23,2.28-3.76,4.39-7.36,6.31-10.8,4.11-7.35,7.42-13.97,9.9-19.86,9.15-21.72,13.72-39.22,13.72-52.52,0-10-2.11-18.03-6.32-24.09-2.9-4.47-6.85-6.71-11.85-6.71-3.95,0-7.21,1.22-9.77,3.65-2.57,2.44-3.85,5.43-3.85,8.98,0,2.37,1.05,6.19,3.16,11.45,3.42,8.29,5.13,16.19,5.13,23.69s-1.38,15.73-4.15,24.29c-3.09,9.35-8.53,20.96-16.3,34.8-2.15,3.82-4.47,7.82-6.98,11.98-1.19,1.98-2.41,3.98-3.68,6.04-2.42,3.91-4.83,7.74-7.24,11.48-3.73,5.8-7.46,11.4-11.16,16.78-7.37,10.71-14.7,20.61-21.97,29.69Z"/></g></g></g></svg>