<svg xmlns="http://www.w3.org/2000/svg" width="74.198" height="87.152" viewBox="0 0 74.198 87.152">
  <g id="building" transform="translate(-38.05)">
    <path id="Path_58" data-name="Path 58" d="M273.643,111.579h7.841a1.7,1.7,0,0,0,1.7-1.7v-7.855a1.7,1.7,0,0,0-1.7-1.7h-7.841a1.7,1.7,0,0,0-1.7,1.7v7.855A1.7,1.7,0,0,0,273.643,111.579Zm1.7-7.854h4.437v4.45h-4.437Z" transform="translate(-194.078 -83.244)" fill="#363636"/>
    <path id="Path_59" data-name="Path 59" d="M182.914,111.579h7.841a1.7,1.7,0,0,0,1.7-1.7v-7.855a1.7,1.7,0,0,0-1.7-1.7h-7.841a1.7,1.7,0,0,0-1.7,1.7v7.855A1.7,1.7,0,0,0,182.914,111.579Zm1.7-7.854h4.437v4.45h-4.437Z" transform="translate(-118.793 -83.244)" fill="#363636"/>
    <path id="Path_60" data-name="Path 60" d="M273.643,213.159h7.841a1.7,1.7,0,0,0,1.7-1.7V203.6a1.7,1.7,0,0,0-1.7-1.7h-7.841a1.7,1.7,0,0,0-1.7,1.7v7.854A1.7,1.7,0,0,0,273.643,213.159Zm1.7-7.855h4.437v4.45h-4.437Z" transform="translate(-194.078 -167.533)" fill="#363636"/>
    <path id="Path_61" data-name="Path 61" d="M182.914,213.159h7.841a1.7,1.7,0,0,0,1.7-1.7V203.6a1.7,1.7,0,0,0-1.7-1.7h-7.841a1.7,1.7,0,0,0-1.7,1.7v7.854A1.7,1.7,0,0,0,182.914,213.159Zm1.7-7.855h4.437v4.45h-4.437Z" transform="translate(-118.793 -167.533)" fill="#363636"/>
    <path id="Path_62" data-name="Path 62" d="M273.643,314.736h7.841a1.7,1.7,0,0,0,1.7-1.7v-7.855a1.7,1.7,0,0,0-1.7-1.7h-7.841a1.7,1.7,0,0,0-1.7,1.7v7.855A1.7,1.7,0,0,0,273.643,314.736Zm1.7-7.854h4.437v4.45h-4.437Z" transform="translate(-194.078 -251.819)" fill="#363636"/>
    <path id="Path_63" data-name="Path 63" d="M190.756,314.736a1.7,1.7,0,0,0,1.7-1.7v-7.855a1.7,1.7,0,0,0-1.7-1.7h-7.841a1.7,1.7,0,0,0-1.7,1.7v7.855a1.7,1.7,0,0,0,1.7,1.7Zm-6.139-7.854h4.437v4.45h-4.437Z" transform="translate(-118.793 -251.819)" fill="#363636"/>
    <path id="Path_64" data-name="Path 64" d="M110.546,83.748h-1.583V32.333a1.7,1.7,0,0,0-1.7-1.7H96.171V9.525a1.7,1.7,0,0,0-1.7-1.7H90.842V1.7A1.7,1.7,0,0,0,89.14,0H62.387a1.7,1.7,0,0,0-1.7,1.7V7.823H57.059a1.7,1.7,0,0,0-1.7,1.7V42.285h-9.34a1.7,1.7,0,0,0-1.7,1.7v39.76H39.752a1.7,1.7,0,0,0,0,3.4h70.794a1.7,1.7,0,0,0,0-3.4ZM64.089,3.4H87.438V7.823H64.089ZM47.719,45.69h7.637V83.748H47.719ZM58.761,11.227H92.767V83.748H84.293V72.517a1.7,1.7,0,0,0-1.7-1.7H68.936a1.7,1.7,0,0,0-1.7,1.7V83.748H58.761ZM70.639,83.748V74.219H80.889v9.529Zm25.533,0V34.035h9.388V83.748Z" fill="#363636"/>
  </g>
</svg>
