<svg id="document" xmlns="http://www.w3.org/2000/svg" width="88" height="87.152" viewBox="0 0 88 87.152">
  <path id="Path_22" data-name="Path 22" d="M77.511,81.341H33.18v5.7H85.424V22.88a1.289,1.289,0,0,1,2.577,0V88.332a1.285,1.285,0,0,1-1.286,1.286H31.889A1.285,1.285,0,0,1,30.6,88.332V81.34H22.69A1.293,1.293,0,0,1,21.4,80.049v-5a1.289,1.289,0,1,1,2.577,0v3.713H76.225V5.043H23.977V69.2a1.289,1.289,0,1,1-2.577,0V3.757A1.293,1.293,0,0,1,22.69,2.466H77.511A1.293,1.293,0,0,1,78.8,3.757v6.992h7.912A1.285,1.285,0,0,1,88,12.035v5.009a1.289,1.289,0,0,1-2.577,0V13.326H78.8V80.05a1.252,1.252,0,0,1-1.291,1.291ZM40.181,67.27a1.287,1.287,0,1,1-.531-2.519,6.565,6.565,0,0,0,.989-.731,31.816,31.816,0,0,0,2.392-2.207,3.027,3.027,0,0,1,.862-.624V58.476H33.063V69.3H43.894V64.571c-.487.458-1.077.994-1.627,1.442a6.008,6.008,0,0,1-2.085,1.257Zm6.29-6.382a3.121,3.121,0,0,1,1.262.721,8.455,8.455,0,0,1,1.588,2.538,13.132,13.132,0,0,0,.984,1.871c.136-.01.112-.7.361-1.4.541-1.525,1.067-3.026,2.67-3.016,1.355.01,2.022,1.009,2.685,2,.278.414.438.833.5.828.01,0,.18-.253.419-.56a5.505,5.505,0,0,1,4.044-2.553,1.284,1.284,0,1,1,.322,2.548,3.347,3.347,0,0,0-2.324,1.564A3.028,3.028,0,0,1,56.717,67c-1.442.112-2.134-.921-2.831-1.968-.287-.424-.214-.819-.395-.819-.239,0-.166.609-.4,1.267-.526,1.491-1.062,3.011-2.626,3.108-1.8.112-2.631-1.613-3.459-3.323-.18-.37-.361-.741-.536-1.062v6.392a1.286,1.286,0,0,1-1.291,1.286h-13.4a1.289,1.289,0,0,1-1.291-1.286V57.184A1.289,1.289,0,0,1,31.777,55.9h13.4a1.286,1.286,0,0,1,1.291,1.286ZM45.18,17.935a1.289,1.289,0,0,1,0-2.577h9.842a1.289,1.289,0,0,1,0,2.577Zm-13.4,26.641a1.289,1.289,0,1,1,0-2.577H68.425a1.289,1.289,0,1,1,0,2.577Zm0-7.732a1.289,1.289,0,1,1,0-2.577H68.425a1.289,1.289,0,1,1,0,2.577Zm0-7.737a1.289,1.289,0,1,1,0-2.577H68.425a1.289,1.289,0,1,1,0,2.577ZM6.447,23.324H4.727a2.163,2.163,0,0,0-2.149,2.149V49.623a1.289,1.289,0,1,1-2.577,0V25.472a4.741,4.741,0,0,1,4.726-4.726h1.72V14.987a4.9,4.9,0,0,1,9.8,0V69.3a1.285,1.285,0,0,1-.107.511L12.566,80.449a1.286,1.286,0,0,1-2.441.01L6.549,69.813a1.317,1.317,0,0,1-.1-.511Zm6.538-9.973a2.322,2.322,0,0,0-3.961,1.637v5.759h4.643V14.987a2.33,2.33,0,0,0-.682-1.637ZM11.343,76.015l1.822-5.423H9.526Zm2.324-52.692H9.024V68.015h4.643Z" transform="translate(-0.001 -2.466)" fill="#363636"/>
</svg>
