<svg id="divorce" xmlns="http://www.w3.org/2000/svg" width="86.997" height="87.152" viewBox="0 0 86.997 87.152">
  <path id="Path_2" data-name="Path 2" d="M201.595,165.588H152.366A1.362,1.362,0,0,1,151,164.226V95.889a1.362,1.362,0,0,1,1.362-1.362h49.229a1.362,1.362,0,0,1,1.362,1.362v28.929a1.362,1.362,0,1,1-2.724,0V97.251H153.728v65.614h46.505v-13.5a1.362,1.362,0,0,1,2.724,0v14.863A1.362,1.362,0,0,1,201.595,165.588Zm0,0" transform="translate(-125.383 -78.436)" fill="#363636"/>
  <path id="Path_3" data-name="Path 3" d="M84.382,262.919a1.361,1.361,0,0,1-1.341-1.126l-6.673-38.047a1.363,1.363,0,0,1,2.684-.47l6.433,36.706,4.482-.786a1.362,1.362,0,1,1,.471,2.683l-5.824,1.02a1.355,1.355,0,0,1-.232.02Zm0,0" transform="translate(-63.435 -184.332)" fill="#363636"/>
  <path id="Path_4" data-name="Path 4" d="M172.608,18.9a1.362,1.362,0,0,1-1.34-1.126L168.725,3.261,136.713,8.871a1.362,1.362,0,0,1-.471-2.683L169.595.344a1.362,1.362,0,0,1,1.577,1.106L173.951,17.3a1.362,1.362,0,0,1-1.343,1.6Zm0,0" transform="translate(-112.199 -0.268)" fill="#363636"/>
  <path id="Path_5" data-name="Path 5" d="M15.131,41.873a1.361,1.361,0,0,1-1.185-.692L2.273,20.53A13.754,13.754,0,0,1,3.762,4.852,12.9,12.9,0,0,1,18.135.732l.273.1a16.348,16.348,0,0,1,8.773,7.6,1.362,1.362,0,0,1-.273,1.652L21.359,15.2l1.827,3.9a1.362,1.362,0,0,1-.658,1.811l-2.5,1.167,2.2,3.775A1.363,1.363,0,0,1,22,27.529l-1.935,1.835.583,4.522a1.362,1.362,0,0,1-1.029,1.5l-2.281.557-.864,4.813a1.361,1.361,0,0,1-1.111,1.1,1.4,1.4,0,0,1-.23.017ZM13.836,2.717A10.523,10.523,0,0,0,5.857,6.594,11.053,11.053,0,0,0,4.644,19.2l9.814,17.363.352-1.966a1.363,1.363,0,0,1,1.019-1.09l1.957-.476-.515-4a1.361,1.361,0,0,1,.408-1.162l1.654-1.571-2.406-4.129a1.362,1.362,0,0,1,.6-1.92l2.615-1.225-1.674-3.573a1.362,1.362,0,0,1,.312-1.58l5.472-5.05a13.6,13.6,0,0,0-6.788-5.436l-.209-.074a10.462,10.462,0,0,0-3.418-.588Zm0,0" transform="translate(-0.49 0.004)" fill="#363636"/>
  <path id="Path_6" data-name="Path 6" d="M319.171,299.668a1.362,1.362,0,0,1-1.362-1.44l.184-3.156a1.359,1.359,0,0,1,.419-.908l2.646-2.514,1.506-4.988a1.349,1.349,0,0,1,.594-.768l2.941-1.8-1.8-2.94a1.361,1.361,0,0,1,.583-1.944l2.5-1.17-2.208-3.774a1.361,1.361,0,0,1,.8-2l4.89-1.406-.991-3.35a1.361,1.361,0,0,1,.817-1.657,16.384,16.384,0,0,1,11.439-.146l.273.1a12.883,12.883,0,0,1,8.39,12.352,13.754,13.754,0,0,1-8.9,13l-22.238,8.413a1.379,1.379,0,0,1-.481.087Zm1.511-3.9-.03.525,20.273-7.671a11.055,11.055,0,0,0,7.135-10.456,10.251,10.251,0,0,0-6.644-9.805l-.187-.069a13.662,13.662,0,0,0-8.377-.281l1.007,3.4a1.361,1.361,0,0,1-.93,1.695l-4.524,1.3,2.077,3.547a1.362,1.362,0,0,1-.6,1.92l-2.469,1.158,1.716,2.8a1.362,1.362,0,0,1-.451,1.872l-3.658,2.24-1.46,4.833a1.346,1.346,0,0,1-.364.592Zm0,0" transform="translate(-263.792 -219.686)" fill="#363636"/>
  <path id="Path_7" data-name="Path 7" d="M265.346,161.49H240.733a1.362,1.362,0,0,1,0-2.724h24.613a1.362,1.362,0,1,1,0,2.724Zm0,0" transform="translate(-198.708 -131.74)" fill="#363636"/>
  <path id="Path_8" data-name="Path 8" d="M238.69,209.658H208.608a1.362,1.362,0,0,1,0-2.724H238.69a1.362,1.362,0,0,1,0,2.724Zm0,0" transform="translate(-172.051 -171.708)" fill="#363636"/>
  <path id="Path_9" data-name="Path 9" d="M238.69,257.833H208.608a1.362,1.362,0,1,1,0-2.724H238.69a1.362,1.362,0,1,1,0,2.724Zm0,0" transform="translate(-172.051 -211.683)" fill="#363636"/>
  <path id="Path_10" data-name="Path 10" d="M237.323,306.009H208.608a1.362,1.362,0,1,1,0-2.724h28.715a1.362,1.362,0,0,1,0,2.724Zm0,0" transform="translate(-172.051 -251.658)" fill="#363636"/>
  <path id="Path_11" data-name="Path 11" d="M227.75,354.185H208.608a1.362,1.362,0,0,1,0-2.724H227.75a1.362,1.362,0,1,1,0,2.724Zm0,0" transform="translate(-172.051 -291.633)" fill="#363636"/>
</svg>
