<svg xmlns="http://www.w3.org/2000/svg" width="82.023" height="77.917" viewBox="0 0 82.023 77.917">
  <g id="contact" transform="translate(-0.001 -12.813)">
    <g id="Group_10" data-name="Group 10" transform="translate(0.001 12.813)">
      <g id="Group_9" data-name="Group 9" transform="translate(0 0)">
        <path id="Path_43" data-name="Path 43" d="M78.537,12.813H21.244A3.491,3.491,0,0,0,17.757,16.3V32.1l-2.62-3.93a4.052,4.052,0,0,0-5.469-1.231l-5.39,3.241A7.909,7.909,0,0,0,.665,34.869c-1.966,7.16-.507,19.495,17.6,37.6C32.661,86.856,43.4,90.729,50.8,90.729a19.1,19.1,0,0,0,5.073-.662,7.922,7.922,0,0,0,4.687-3.608l3.237-5.4A4.052,4.052,0,0,0,62.562,75.6L49.655,67a4.074,4.074,0,0,0-5.453.885l-3.758,4.831a1.309,1.309,0,0,1-1.674.354l-.715-.394c-2.353-1.283-5.282-2.88-11.2-8.795-.64-.64-1.22-1.239-1.764-1.812H78.537a3.484,3.484,0,0,0,3.487-3.47V16.3A3.491,3.491,0,0,0,78.537,12.813ZM36.747,75.074l.695.382A4.028,4.028,0,0,0,42.6,74.392l3.758-4.831a1.329,1.329,0,0,1,1.778-.289l12.907,8.6a1.321,1.321,0,0,1,.4,1.778l-3.237,5.4a5.2,5.2,0,0,1-3.064,2.379c-6.464,1.778-17.776.274-34.945-16.9S1.533,42.05,3.306,35.592a5.2,5.2,0,0,1,2.378-3.064l5.4-3.238a1.322,1.322,0,0,1,1.778.4L21.465,42.6a1.328,1.328,0,0,1-.289,1.778l-4.832,3.759a4.027,4.027,0,0,0-1.064,5.161l.383.695c1.367,2.508,3.067,5.628,9.263,11.822S34.241,73.707,36.747,75.074ZM79.289,58.6a.747.747,0,0,1-.752.738H22.627a34.484,34.484,0,0,1-4.563-6.651l-.394-.718a1.3,1.3,0,0,1,.353-1.671l4.832-3.759a4.072,4.072,0,0,0,.885-5.453l-3.249-4.876V16.3a.744.744,0,0,1,.752-.752H78.537a.744.744,0,0,1,.752.752V58.6Z" transform="translate(-0.001 -12.813)" fill="#363636"/>
        <path id="Path_44" data-name="Path 44" d="M198.375,50.866,175.521,68.2a1.845,1.845,0,0,1-2.169,0L150.508,50.866a1.368,1.368,0,0,0-1.653,2.18L171.7,70.375a4.6,4.6,0,0,0,5.469,0l22.854-17.33a1.367,1.367,0,0,0-1.652-2.18Z" transform="translate(-124.548 -44.535)" fill="#363636"/>
        <path id="Path_45" data-name="Path 45" d="M163.185,172.793l-14.007,15a1.368,1.368,0,1,0,2,1.865l14.008-15.007a1.367,1.367,0,0,0-2-1.858Z" transform="translate(-124.965 -146.837)" fill="#363636"/>
        <path id="Path_46" data-name="Path 46" d="M372.319,172.513a1.368,1.368,0,1,0-2,1.865l14,15a1.368,1.368,0,0,0,2-1.865Z" transform="translate(-310.671 -146.558)" fill="#363636"/>
      </g>
    </g>
  </g>
</svg>
