<svg xmlns="http://www.w3.org/2000/svg" width="81.129" height="87.152" viewBox="0 0 81.129 87.152">
  <g id="Layer_6" data-name="Layer 6" transform="translate(-3.9 -3)">
    <path id="Path_56" data-name="Path 56" d="M44.46,90.152a3.352,3.352,0,0,1-1.756-.5L31.219,82.58A57.118,57.118,0,0,1,3.9,33.641V19.9A3.352,3.352,0,0,1,6.78,16.579,84.615,84.615,0,0,0,42.448,3.67a3.352,3.352,0,0,1,4.022,0,84.615,84.615,0,0,0,35.679,12.9,3.352,3.352,0,0,1,2.879,3.318V33.627A57.111,57.111,0,0,1,57.7,82.566L46.216,89.646a3.352,3.352,0,0,1-1.756.506ZM10.6,22.753V33.641A50.448,50.448,0,0,0,34.739,76.881l9.721,5.98,9.721-5.99A50.448,50.448,0,0,0,78.315,33.631V22.753A93.387,93.387,0,0,1,44.46,10.4,93.387,93.387,0,0,1,10.6,22.753Z" transform="translate(0 0)" fill="#363636"/>
    <path id="Path_57" data-name="Path 57" d="M47.125,13.858a11.886,11.886,0,0,0-9.935-3.352,12.8,12.8,0,0,0-7.069,3.282,12.764,12.764,0,0,0-7.066-3.282,11.859,11.859,0,0,0-9.932,3.352c-5.249,5.246-3.017,13.408.469,18.818A52.962,52.962,0,0,0,26.5,45.98c.6.459,1.083.825,1.4,1.106a3.352,3.352,0,0,0,4.438,0c.335-.282.825-.67,1.455-1.163A52.365,52.365,0,0,0,46.716,32.579c4.5-7.492,4.639-14.494.409-18.721Z" transform="translate(14.36 17.41)" fill="#363636"/>
  </g>
</svg>
