<svg id="family-law" xmlns="http://www.w3.org/2000/svg" width="89.282" height="87.152" viewBox="0 0 89.282 87.152">
  <path id="Path_12" data-name="Path 12" d="M405.3,130.424a1.186,1.186,0,0,0-1.078.21,1.284,1.284,0,0,0-.476,1.078v1.732a1.308,1.308,0,1,0,2.616,0v-.538a6.09,6.09,0,0,0,1.057-.364,1.308,1.308,0,1,0-1.065-2.389A2.6,2.6,0,0,1,405.3,130.424Z" transform="translate(-333.34 -108.429)" fill="#363636"/>
  <path id="Path_13" data-name="Path 13" d="M373.41,175.21a3.388,3.388,0,0,1-3.557,0,1.308,1.308,0,1,0-1.367,2.23,5.992,5.992,0,0,0,6.29,0,1.308,1.308,0,1,0-1.367-2.23Z" transform="translate(-303.715 -145.563)" fill="#363636"/>
  <path id="Path_14" data-name="Path 14" d="M354.15,133.442V131.71a1.285,1.285,0,0,0-.476-1.078,1.186,1.186,0,0,0-1.078-.21,2.6,2.6,0,0,1-1.054-.27,1.308,1.308,0,1,0-1.065,2.389,6.1,6.1,0,0,0,1.058.364v.538a1.308,1.308,0,0,0,2.616,0Z" transform="translate(-288.72 -108.427)" fill="#363636"/>
  <path id="Path_15" data-name="Path 15" d="M105.172,126.24v-1.724a1.308,1.308,0,1,0-2.616,0v1.724a1.308,1.308,0,1,0,2.616,0Z" transform="translate(-84.672 -102.788)" fill="#363636"/>
  <path id="Path_16" data-name="Path 16" d="M137.839,127.548a1.308,1.308,0,0,0,1.308-1.308v-1.724a1.308,1.308,0,1,0-2.616,0v1.724A1.308,1.308,0,0,0,137.839,127.548Z" transform="translate(-112.723 -102.788)" fill="#363636"/>
  <path id="Path_17" data-name="Path 17" d="M112.816,166.522a1.308,1.308,0,0,0-1.8-.432,3.366,3.366,0,0,1-3.534,0,1.308,1.308,0,0,0-1.367,2.23,5.97,5.97,0,0,0,6.267,0A1.308,1.308,0,0,0,112.816,166.522Z" transform="translate(-87.097 -138.033)" fill="#363636"/>
  <path id="Path_18" data-name="Path 18" d="M237.1,226.3v-1.343a1.308,1.308,0,1,0-2.616,0V226.3a1.308,1.308,0,0,0,2.616,0Z" transform="translate(-193.594 -185.711)" fill="#363636"/>
  <path id="Path_19" data-name="Path 19" d="M262.246,223.645a1.308,1.308,0,0,0-1.308,1.308V226.3a1.308,1.308,0,1,0,2.616,0v-1.343A1.308,1.308,0,0,0,262.246,223.645Z" transform="translate(-215.436 -185.711)" fill="#363636"/>
  <path id="Path_20" data-name="Path 20" d="M241.209,257.077a2.333,2.333,0,0,1-2.449,0,1.308,1.308,0,0,0-1.367,2.23,4.938,4.938,0,0,0,5.182,0,1.308,1.308,0,0,0-1.367-2.23Z" transform="translate(-195.481 -213.154)" fill="#363636"/>
  <path id="Path_21" data-name="Path 21" d="M89.232,77.376a4.805,4.805,0,0,0-3.439-3.929V62.031a1.308,1.308,0,0,0-1.5-1.294l-4.275.619v-5.9a12.191,12.191,0,0,0-5.787-10.319,12.833,12.833,0,0,0,4.6-4.584h4.541a1.308,1.308,0,0,0,1.308-1.308V22.879a16.771,16.771,0,1,0-33.541,0v6.379a12.065,12.065,0,0,0-4.837-1.006H42.7a12.331,12.331,0,0,0-1.868.143,5.234,5.234,0,0,0-2.453-3.828V12.74a6.45,6.45,0,0,0-11.46-4.065,5.906,5.906,0,0,0-4.743-2.389H16a9.333,9.333,0,0,0-3.786.795A1.308,1.308,0,0,0,13.27,9.475,6.733,6.733,0,0,1,16,8.9h6.171a3.3,3.3,0,0,1,3.3,3.3v2.027a1.3,1.3,0,0,0-.2.325,7.659,7.659,0,0,1-7.1,4.74c-.339,0-1.216-.011-1.529.017a7.672,7.672,0,0,0-6.469,4.483h-.96V15.685a6.788,6.788,0,0,1,.822-3.238,1.308,1.308,0,0,0-2.3-1.251A9.411,9.411,0,0,0,6.6,15.685v8.53A5.23,5.23,0,0,0,8.67,34.249h.824a12.574,12.574,0,0,0,3.74,8.917,12.729,12.729,0,0,0,2.589,1.982,12.193,12.193,0,0,0-5.773,10.31V61.47l-5.064-.733a1.308,1.308,0,0,0-1.5,1.294V73.449a4.8,4.8,0,0,0,.62,9.362l29.2,4.23a13.433,13.433,0,0,0,22.664,0l5.062-.734v3.845a3.1,3.1,0,0,0,5.02,2.442L68.3,90.835a.489.489,0,0,1,.6,0l2.244,1.761a3.1,3.1,0,0,0,5.02-2.442V84.116l9.007-1.306a4.795,4.795,0,0,0,4.06-5.435ZM6.056,29.019A2.614,2.614,0,0,1,8.67,26.407h.844c-.013.181-.022.363-.022.547v4.68H8.67A2.617,2.617,0,0,1,6.056,29.019ZM77.407,55.458v6.277l-4.278.62a1.308,1.308,0,1,0,.375,2.588l9.674-1.4V73.4l-7.012,1.017V72.008a1.308,1.308,0,0,0-1.5-1.294L62.155,72.527a1.308,1.308,0,0,0-1.12,1.294v2.791L52.127,77.9a4.824,4.824,0,0,0-3.753,2.927l-.186.455a3.815,3.815,0,0,1-2.239,2.148v-5.51h0a10.386,10.386,0,0,1,8.862-10.273l.05-.008L68.356,65.69a1.308,1.308,0,1,0-.375-2.589l-9.552,1.382V55.458a9.547,9.547,0,0,1,6.433-8.985,12.789,12.789,0,0,0,3.052.368h.1a12.521,12.521,0,0,0,2.948-.373A9.549,9.549,0,0,1,77.407,55.458ZM34.259,64.976V55.458a12.191,12.191,0,0,0-5.793-10.323,12.571,12.571,0,0,0,2.478-1.89,12.024,12.024,0,0,0,3.2,5.664c.07.07.142.137.213.205v1.173a10.079,10.079,0,0,0,3,7.2A10.274,10.274,0,0,0,38.7,58.616a8.619,8.619,0,0,0-2.868,6.446v.189c-.311-.071-.624-.133-.941-.181l-.092-.015ZM23.547,46.762a12.538,12.538,0,0,0,1.646-.3,9.549,9.549,0,0,1,6.45,8.992V64.6l-8.1-1.173Zm31.106,3.415V49.115A12.088,12.088,0,0,0,58.24,42.37c.229.268.467.529.72.781a12.794,12.794,0,0,0,2.62,2,12.192,12.192,0,0,0-5.766,10.306v9.4l-1.33.193c-.026,0-.057.008-.094.015-.411.062-.817.145-1.218.246v-.254A8.614,8.614,0,0,0,50.289,58.6,10.312,10.312,0,0,0,54.653,50.177Zm-2.616,0a7.639,7.639,0,0,1-5.576,7.383,7.38,7.38,0,0,1-1.9.261,7.533,7.533,0,0,1-7.59-7.532V44.664a3.647,3.647,0,0,1,3.4-3.633c.166-.015.856-.006,1.033-.008a8.282,8.282,0,0,0,6.3-2.892,7.014,7.014,0,0,0,.732.862A6.881,6.881,0,0,0,52.037,40.9ZM38.451,65.062a6.017,6.017,0,0,1,2.858-5.138,10.156,10.156,0,0,0,3.191.513h.078a10,10,0,0,0,2.572-.354c.182-.05.36-.106.537-.165a6.012,6.012,0,0,1,2.869,5.144v1.216a12.977,12.977,0,0,0-5.915,5.968,12.956,12.956,0,0,0-6.19-6.1V65.062Zm39.567-31.08a10.239,10.239,0,0,1-7.475,9.893,9.919,9.919,0,0,1-2.55.351h-.078a10.1,10.1,0,0,1-10.1-10.1V30.963A5.086,5.086,0,0,1,62.561,25.9c.231-.021,1.113-.008,1.36-.012A10.306,10.306,0,0,0,72.084,21.9a8.638,8.638,0,0,0,1.184,1.48,8.5,8.5,0,0,0,4.75,2.41Zm-24.255-11.1a14.155,14.155,0,1,1,28.31,0V37.94H80.012a12.931,12.931,0,0,0,.622-3.959v-9.4a1.308,1.308,0,0,0-1.308-1.308,5.954,5.954,0,0,1-5.79-4.566,1.308,1.308,0,0,0-2.481-.2,7.7,7.7,0,0,1-7.135,4.765c-.357,0-1.193-.012-1.536.017A7.706,7.706,0,0,0,55.2,30.963V32.15c-.11-.119-.221-.238-.336-.353a12.306,12.306,0,0,0-1.1-.974ZM46.31,30.868a9.482,9.482,0,0,1,8.343,13.993V39.714a1.308,1.308,0,0,0-1.308-1.308,4.32,4.32,0,0,1-4.2-3.313,1.308,1.308,0,0,0-2.481-.2,5.675,5.675,0,0,1-5.257,3.511c-.287,0-.933-.009-1.209.014a6.267,6.267,0,0,0-5.842,6.242v.209a9.435,9.435,0,0,1-1.142-4.519c0-.131,0-.263.009-.4A9.478,9.478,0,0,1,42.7,30.868H46.31Zm-11.493.292V26.407h.823a2.615,2.615,0,0,1,2.612,2.612c0,.024,0,.047,0,.071a11.948,11.948,0,0,0-3.433,2.071ZM31.924,8.9a3.842,3.842,0,0,1,3.837,3.838V23.794c-.04,0-.08,0-.121,0h-.823V20.6a1.308,1.308,0,0,0-1.308-1.308,5.882,5.882,0,0,1-4.183-1.73,5.968,5.968,0,0,1-1.241-1.824v-3A3.843,3.843,0,0,1,31.924,8.9ZM12.108,34.178V26.953a5.057,5.057,0,0,1,4.722-5.036c.207-.019,1.117-.007,1.346-.01A10.265,10.265,0,0,0,26.3,17.941a8.65,8.65,0,0,0,1.175,1.468,8.477,8.477,0,0,0,4.726,2.4V34.035c0,.1-.006.207-.009.311a12.091,12.091,0,0,0-1.563,5.147,10.166,10.166,0,0,1-5.861,4.383,9.851,9.851,0,0,1-2.538.348A10.044,10.044,0,0,1,12.108,34.178Zm.558,21.28A9.549,9.549,0,0,1,19.1,46.472a12.661,12.661,0,0,0,1.83.31V63.045l-8.265-1.2ZM34.422,67.642l.05.008a10.387,10.387,0,0,1,8.862,10.274v5.51a3.817,3.817,0,0,1-2.239-2.149l-.188-.458a4.822,4.822,0,0,0-3.75-2.923L6.106,73.4V63.541Zm20.563,16.9a1.308,1.308,0,0,0-.95.649,10.815,10.815,0,0,1-18.786,0,1.308,1.308,0,0,0-.95-.649L4.485,80.221A2.182,2.182,0,0,1,5.111,75.9l31.671,4.59a2.194,2.194,0,0,1,1.706,1.329l.186.455a6.424,6.424,0,0,0,5.915,4l.052,0,.052,0a6.425,6.425,0,0,0,5.916-4l.185-.453A2.2,2.2,0,0,1,52.5,80.492l8.533-1.237v4.409ZM73.55,90.152a.488.488,0,0,1-.79.384l-2.245-1.761a3.1,3.1,0,0,0-3.831,0L64.44,90.537a.488.488,0,0,1-.789-.385v-15.2l9.9-1.434ZM86.233,79.369a2.165,2.165,0,0,1-1.435.853l-8.632,1.252V77.064L84.171,75.9a2.183,2.183,0,0,1,2.062,3.466Z" transform="translate(-0.001 -6.108)" fill="#363636"/>
</svg>
