<svg xmlns="http://www.w3.org/2000/svg" width="87.157" height="87.152" viewBox="0 0 87.157 87.152">
  <g id="testament" transform="translate(-1 -1)">
    <path id="Path_47" data-name="Path 47" d="M86.8,27.657a4.6,4.6,0,0,0-4.73-1.118,30.793,30.793,0,0,0-11.979,7.4l-6.3,6.3a4.314,4.314,0,0,0-.939-.281V2.406A1.406,1.406,0,0,0,61.444,1H2.406A1.406,1.406,0,0,0,1,2.406V86.746a1.406,1.406,0,0,0,1.406,1.406H61.444a1.406,1.406,0,0,0,1.406-1.406V60.622L67.576,55.9a4.38,4.38,0,0,0,6.636-5.231l6.3-6.3a30.772,30.772,0,0,0,7.4-11.978A4.592,4.592,0,0,0,86.8,27.657ZM40.823,72.809l.824.824-2.693,2.69V74.677Zm3.14-.835-1.482-1.482a35.267,35.267,0,0,1,7.5-11.06L60.5,48.913l5.041,5.041L55.022,64.475a35.257,35.257,0,0,1-11.058,7.5ZM60.039,85.341H3.811V3.811H60.039V40.424a4.332,4.332,0,0,0-1.477,6.455L47.995,57.445a38.073,38.073,0,0,0-8.357,12.574L36.555,73.1a1.406,1.406,0,0,0-.413.994v5.623a1.406,1.406,0,0,0,.867,1.3,1.388,1.388,0,0,0,.538.107,1.405,1.405,0,0,0,.994-.412l5.894-5.894a38.07,38.07,0,0,0,12.572-8.355l3.031-3.029ZM70.172,53.953a1.572,1.572,0,0,1-1.115-.461l-8.094-8.1A1.576,1.576,0,0,1,63.2,43.17l8.088,8.094a1.576,1.576,0,0,1-1.116,2.689ZM85.248,31.5a27.965,27.965,0,0,1-6.723,10.88l-6.074,6.068L66.006,42l6.073-6.073A28,28,0,0,1,82.96,29.206,1.812,1.812,0,0,1,85.248,31.5Z" fill="#363636"/>
    <path id="Path_48" data-name="Path 48" d="M0,0H13.915V2.811H0Z" transform="translate(70.278 42.18) rotate(-45)" fill="#363636"/>
    <path id="Path_49" data-name="Path 49" d="M26.245,27.491A11.245,11.245,0,1,0,15,16.245,11.245,11.245,0,0,0,26.245,27.491Zm0-19.68a8.434,8.434,0,1,1-8.434,8.434,8.434,8.434,0,0,1,8.434-8.434Z" transform="translate(5.68 1.623)" fill="#363636"/>
    <path id="Path_50" data-name="Path 50" d="M9,23H48.359v2.811H9Z" transform="translate(3.245 8.925)" fill="#363636"/>
    <path id="Path_51" data-name="Path 51" d="M7,27H51.982v2.811H7Z" transform="translate(2.434 10.548)" fill="#363636"/>
    <path id="Path_52" data-name="Path 52" d="M7,31H51.982v2.811H7Z" transform="translate(2.434 12.17)" fill="#363636"/>
    <path id="Path_53" data-name="Path 53" d="M9,35H48.359v2.811H9Z" transform="translate(3.245 13.793)" fill="#363636"/>
    <path id="Path_54" data-name="Path 54" d="M22.811,22.057h2.811V13.623h2.811V10.811H25.623V8H22.811v2.811H20v2.811h2.811Z" transform="translate(7.708 2.84)" fill="#363636"/>
    <path id="Path_55" data-name="Path 55" d="M25.3,58.4a1.52,1.52,0,0,1-2.883,0,4.68,4.68,0,0,0-4.523-3.178A1.044,1.044,0,0,1,16.9,54.5a5.121,5.121,0,0,0-8.479-2L5.293,55.629l1.988,1.988,3.129-3.129a2.311,2.311,0,0,1,3.825.9,3.891,3.891,0,0,0,3.773,2.637,1.827,1.827,0,0,1,1.742,1.257,4.332,4.332,0,0,0,8.219,0,1.827,1.827,0,0,1,1.74-1.257h1.881V55.217H29.708A4.639,4.639,0,0,0,25.3,58.4Z" transform="translate(1.742 20.284)" fill="#363636"/>
  </g>
</svg>
